<?xml version="1.0" standalone="no"?>
<!DOCTYPE svg PUBLIC "-//W3C//DTD SVG 20010904//EN"
 "http://www.w3.org/TR/2001/REC-SVG-20010904/DTD/svg10.dtd">
<svg version="1.0" xmlns="http://www.w3.org/2000/svg"
 width="861.000000pt" height="861.000000pt" viewBox="0 0 861.000000 861.000000"
 preserveAspectRatio="xMidYMid meet">
<metadata>
Created by potrace 1.11, written by Peter Selinger 2001-2013
</metadata>
<g transform="translate(0.000000,861.000000) scale(0.100000,-0.100000)"
fill="#000000" stroke="none">
<path d="M0 7461 l0 -1148 62 4 c35 2 99 9 143 14 172 23 172 23 221 -1 40
-18 51 -20 70 -9 13 7 26 20 29 30 7 22 31 15 38 -12 5 -18 26 -24 70 -21 20
2 77 42 59 42 -5 0 -8 9 -5 20 4 14 11 19 23 15 12 -4 16 0 15 15 -1 11 -3 21
-6 22 -2 2 -3 1 -2 -1 2 -2 -6 -10 -17 -18 -24 -17 -44 -8 -32 14 10 16 4 63
-7 63 -16 0 -20 -14 -10 -27 9 -10 7 -13 -8 -13 -10 0 -28 -6 -38 -14 -16 -11
-21 -11 -33 0 -11 12 -11 20 0 50 7 20 18 39 25 41 6 3 9 12 6 20 -4 11 -2 14
5 9 8 -4 10 -2 6 7 -3 8 -1 18 5 22 6 3 11 12 11 18 0 14 -203 15 -375 2 -114
-8 -174 3 -211 40 -32 32 -31 75 2 115 22 26 25 37 20 71 -6 36 -3 44 24 71
19 19 36 28 46 24 9 -3 34 -1 56 6 29 9 51 9 86 0 26 -6 62 -14 80 -17 22 -5
32 -11 28 -20 -3 -8 7 -15 29 -19 44 -9 131 26 168 66 33 35 59 83 50 92 -4 3
-1 6 5 6 7 0 12 6 12 13 0 8 9 22 20 32 12 11 31 36 43 57 27 49 74 79 116 74
18 -2 35 -7 39 -11 4 -5 0 -6 -8 -3 -21 8 -42 -16 -27 -31 19 -19 44 -12 51
14 5 18 13 25 29 25 46 0 60 -40 32 -94 -19 -35 -19 -41 0 -60 15 -14 35 -12
88 9 14 6 17 1 17 -34 0 -30 5 -44 20 -53 38 -24 25 -46 -37 -58 -42 -9 -66
-20 -86 -42 -15 -17 -31 -28 -34 -25 -10 11 -44 -13 -37 -26 4 -7 4 -9 -1 -5
-16 15 -63 -25 -74 -64 -15 -49 -47 -84 -65 -69 -19 16 -58 9 -64 -11 -2 -10
-9 -15 -15 -11 -6 3 -7 1 -3 -6 5 -7 28 -11 54 -11 42 1 126 -7 282 -28 39 -5
56 -12 58 -24 2 -9 -30 -61 -71 -115 -40 -54 -93 -130 -116 -170 -41 -69 -135
-171 -185 -202 -20 -12 -27 -12 -40 -2 -17 14 -22 52 -9 65 11 11 33 89 27 95
-3 3 -9 -1 -14 -9 -7 -11 -10 -11 -10 -2 0 10 -5 10 -22 1 -13 -7 -40 -14 -61
-15 -20 -2 -41 -6 -46 -8 -5 -3 -14 1 -21 9 -10 13 -17 11 -48 -15 -21 -17
-48 -30 -64 -30 -16 0 -28 -5 -28 -11 0 -5 -5 -7 -12 -3 -8 5 -9 2 -5 -9 3 -9
2 -19 -3 -22 -5 -3 -7 -12 -4 -20 4 -9 0 -12 -13 -9 -20 4 -66 -48 -66 -75 0
-9 -3 -18 -7 -21 -3 -3 -13 -30 -22 -60 -15 -55 -15 -55 -52 -54 -24 1 -46 9
-58 22 l-21 21 29 58 c16 32 35 64 42 72 42 44 93 122 90 138 -3 15 -17 19
-83 23 -58 4 -91 12 -118 27 l-37 22 0 -2111 0 -2112 37 44 c21 24 45 51 53
60 8 9 23 32 33 51 43 83 65 89 270 83 110 -3 135 -7 168 -26 41 -23 79 -85
79 -129 0 -38 -44 -123 -76 -147 -16 -12 -41 -32 -55 -45 -14 -12 -37 -30 -50
-39 -13 -10 -46 -46 -73 -81 -46 -58 -129 -135 -141 -130 -3 2 -30 -15 -62
-37 -31 -22 -65 -40 -75 -40 -10 0 -18 -4 -18 -10 0 -5 -6 -10 -14 -10 -8 0
-28 -18 -45 -39 l-31 -39 0 -656 c0 -361 3 -656 7 -656 10 0 63 52 63 62 0 5
10 20 23 33 70 73 86 93 101 122 9 18 26 38 39 44 32 18 87 18 122 1 35 -18
101 -85 110 -112 4 -11 11 -20 16 -20 5 0 9 -5 9 -11 0 -7 11 -22 26 -35 29
-28 88 -32 120 -9 12 8 25 11 29 7 5 -4 5 -2 1 5 -3 7 2 14 14 18 11 3 19 9
19 13 -2 14 14 52 21 52 4 0 13 13 20 29 33 82 112 94 144 22 16 -34 17 -56
11 -158 -7 -117 -7 -153 -6 -245 l1 -48 1124 0 1124 0 -4 38 c-2 20 -5 70 -8
111 -5 71 -4 74 25 103 27 27 34 30 78 25 27 -3 58 -10 68 -16 42 -22 103 -38
134 -34 71 7 193 108 262 215 39 62 54 73 108 83 62 11 93 -13 138 -108 67
-139 136 -164 237 -86 30 23 54 45 54 49 0 4 29 36 64 72 70 71 115 91 173 76
49 -13 61 -47 68 -189 6 -134 23 -330 28 -336 2 -2 568 -2 1258 -1 l1254 3
-65 22 c-36 12 -78 26 -95 32 -16 6 -57 18 -90 28 -89 25 -191 85 -179 105 3
4 1 8 -4 8 -14 0 -9 33 8 51 8 9 38 24 67 33 28 10 77 30 109 46 37 20 65 28
81 24 19 -5 22 -3 16 12 -4 12 -3 15 6 10 6 -4 23 0 36 8 14 9 25 13 25 9 0
-5 5 0 11 10 15 25 48 21 61 -8 17 -38 79 -34 192 13 138 59 191 78 315 118
92 29 119 34 145 27 l31 -10 -43 -41 c-24 -23 -66 -54 -95 -68 -29 -15 -67
-43 -86 -62 -32 -35 -32 -36 -12 -44 12 -4 21 -11 21 -15 0 -4 14 -16 31 -25
17 -10 28 -22 25 -27 -4 -5 12 -12 34 -16 22 -4 42 -11 45 -15 3 -5 12 -7 20
-3 10 3 15 -1 15 -13 0 -16 2 -17 10 -4 6 9 10 10 10 3 0 -7 -9 -17 -20 -23
-12 -7 -20 -7 -20 -1 0 5 -11 8 -25 5 -18 -3 -25 0 -25 11 0 18 -16 20 -23 3
-4 -9 -8 -9 -14 -3 -10 12 -43 16 -43 5 0 -4 -12 -5 -26 -2 -15 3 -29 -1 -34
-8 -6 -10 -12 -9 -30 3 -12 8 -28 13 -35 11 -7 -3 -16 -1 -19 5 -4 6 -13 8
-21 4 -9 -3 -22 1 -31 8 -13 10 -17 10 -24 0 -5 -10 -9 -10 -15 -2 -6 11 -51
9 -95 -4 -13 -4 -78 -13 -135 -19 -19 -3 -35 -35 -18 -37 4 0 27 -2 49 -3 47
-3 113 -31 121 -52 6 -17 30 -18 36 -1 4 7 6 6 6 -4 1 -17 26 -33 39 -25 4 2
16 -5 26 -15 12 -11 14 -19 7 -19 -7 0 -9 -5 -6 -11 4 -6 -1 -17 -11 -24 -16
-12 71 -14 629 -15 l647 0 0 1305 c0 1089 -2 1305 -14 1305 -12 0 -58 -13 -96
-27 -8 -3 -23 -8 -32 -9 -10 -2 -39 -15 -65 -28 -61 -32 -163 -65 -216 -71
-23 -3 -55 -7 -72 -9 -16 -2 -41 1 -55 6 -14 6 -63 14 -110 19 -125 13 -149
18 -208 45 -72 33 -79 52 -148 402 -31 159 -31 162 4 162 37 0 104 -70 109
-113 2 -18 10 -59 19 -92 9 -33 20 -78 24 -100 15 -77 40 -132 66 -144 14 -6
65 -11 113 -11 85 0 124 10 175 43 15 9 20 9 23 0 3 -7 11 -13 18 -13 7 0 16
-11 19 -25 7 -26 29 -32 56 -15 9 5 19 5 27 -1 9 -8 17 -2 32 22 11 18 17 37
13 43 -3 6 -5 18 -4 28 2 9 -2 19 -7 22 -6 4 -8 13 -4 21 3 9 0 22 -7 31 -10
11 -10 18 -2 26 9 9 8 16 -2 27 -7 9 -17 27 -21 40 -6 18 -4 22 6 15 9 -5 7 3
-4 20 -11 15 -17 37 -14 47 3 10 2 19 -2 19 -4 0 -6 12 -5 27 2 16 5 54 8 85
3 32 10 66 16 78 12 23 42 26 59 6 10 -12 34 -90 45 -148 5 -29 10 -50 36
-163 11 -49 23 -100 26 -113 10 -47 38 -62 119 -62 l75 0 0 754 0 754 -30 -28
c-16 -15 -30 -33 -30 -40 0 -7 -6 -10 -14 -7 -9 4 -13 -2 -12 -16 1 -15 -7
-23 -24 -27 -32 -8 -50 10 -50 49 0 30 -1 31 -37 26 -42 -5 -91 -47 -100 -85
-3 -14 -13 -30 -22 -37 -18 -14 -87 -17 -93 -5 -1 4 -25 23 -52 42 l-48 35
-193 6 c-206 7 -275 20 -346 66 -39 25 -50 54 -84 213 -9 41 -21 94 -26 117
-12 46 -7 63 20 63 30 0 73 -74 86 -150 0 -3 9 -38 20 -78 18 -69 21 -73 56
-84 20 -6 49 -8 64 -4 31 8 30 11 -11 159 -21 74 -23 94 -14 127 12 46 36 52
65 20 10 -12 34 -30 52 -41 23 -14 33 -28 33 -45 0 -13 5 -24 10 -24 6 0 9 -3
9 -7 -4 -24 3 -45 21 -63 11 -11 16 -20 12 -20 -4 0 -8 -12 -7 -27 0 -20 5
-28 18 -27 9 1 17 -4 17 -12 0 -8 6 -11 16 -7 10 4 14 13 9 27 -3 11 -7 36 -9
54 -2 18 -12 40 -23 48 -10 9 -13 13 -7 10 8 -4 12 17 12 69 0 41 3 79 7 85
10 17 47 11 71 -11 12 -11 40 -23 62 -26 47 -6 76 19 93 80 7 28 14 37 25 33
9 -3 18 -6 20 -6 2 0 4 -9 4 -19 0 -11 5 -23 10 -26 6 -4 25 -38 42 -76 18
-37 38 -71 46 -74 9 -3 12 0 9 9 -3 8 1 17 9 20 8 3 14 16 14 30 0 14 6 31 13
38 8 7 20 31 27 53 33 103 62 75 124 -122 41 -127 55 -156 72 -149 9 3 27 6
41 6 l25 0 -6 88 c-3 48 -5 107 -5 132 1 25 3 392 5 816 l5 770 -53 17 c-159
50 -272 211 -238 338 6 21 15 39 20 39 4 0 15 3 23 6 11 4 17 -10 27 -60 16
-85 60 -178 97 -204 39 -28 77 -36 102 -22 18 9 21 20 21 81 0 66 -2 73 -36
115 -20 24 -37 54 -38 67 -2 31 20 50 49 43 l25 -6 0 1020 -1 1020 -4304 0
-4305 0 0 -1149z m3922 796 c3 -30 6 -32 43 -34 27 -2 42 3 48 13 7 13 12 11
32 -10 13 -15 21 -33 19 -43 -6 -20 -89 -63 -123 -63 -22 0 -28 -14 -11 -25
20 -12 102 -15 123 -3 26 13 47 40 41 50 -3 4 2 5 10 2 9 -3 16 -9 17 -13 0
-3 2 -22 5 -41 2 -19 0 -40 -4 -45 -12 -18 -55 -41 -97 -54 -42 -13 -78 -27
-108 -43 -10 -5 -22 -6 -27 -3 -5 3 -17 1 -27 -5 -10 -5 -31 -14 -46 -20 -16
-5 -25 -14 -22 -20 3 -5 -3 -10 -15 -10 -12 0 -28 -7 -37 -16 -39 -38 -79 7
-61 70 5 22 3 37 -8 54 -12 19 -13 26 -4 32 7 4 10 12 7 17 -3 5 14 36 39 68
24 33 47 68 50 77 3 10 10 18 16 18 6 0 26 16 44 35 62 62 91 66 96 12z
m-2365 7 c12 -8 49 -16 83 -18 73 -6 112 -36 114 -86 1 -41 44 -60 80 -34 11
8 17 14 13 14 -4 0 -3 10 4 21 8 15 8 19 0 15 -17 -11 -13 10 4 24 13 10 15 9
16 -11 1 -13 1 -27 0 -31 0 -4 3 -27 8 -53 7 -39 5 -49 -12 -73 -12 -15 -29
-33 -39 -40 -9 -7 -24 -20 -33 -29 -16 -16 -95 -25 -95 -10 0 4 -4 7 -10 7 -5
0 -10 -6 -10 -13 0 -7 -18 -23 -40 -37 -22 -14 -40 -28 -40 -32 0 -5 -3 -7 -7
-6 -14 4 -83 -23 -83 -33 0 -5 -10 -9 -23 -9 -12 0 -32 -7 -44 -15 -11 -8 -39
-17 -62 -21 -22 -4 -41 -10 -41 -15 0 -5 -5 -9 -11 -9 -6 0 -24 -9 -39 -20
-18 -13 -38 -19 -52 -16 -47 11 -95 15 -178 17 -105 2 -189 14 -226 34 -19 10
-32 11 -40 4 -9 -7 -24 -4 -50 11 -21 11 -32 20 -24 20 10 0 9 4 -5 13 -14 11
-15 16 -5 22 7 4 15 3 19 -2 9 -14 52 -36 58 -29 3 3 12 -1 20 -9 16 -17 37
-20 28 -5 -3 6 -2 10 3 10 6 0 6 15 0 41 -8 28 -23 50 -50 72 -30 24 -38 37
-36 57 3 25 4 25 98 26 52 0 129 6 170 13 41 7 111 11 155 9 50 -3 84 0 91 7
6 6 25 40 43 75 18 36 48 87 67 113 l35 47 62 -1 c34 -1 72 -8 84 -15z m5075
-30 c37 -7 60 -41 36 -55 -15 -10 9 -41 26 -33 6 3 2 -2 -9 -11 -13 -12 -16
-19 -8 -22 15 -5 -34 -63 -54 -63 -7 0 -13 -4 -13 -10 0 -5 -16 -10 -35 -10
-19 0 -35 -5 -35 -11 0 -5 -8 -9 -17 -7 -10 1 -24 -1 -31 -6 -7 -4 -23 -9 -35
-11 -40 -5 -77 -17 -77 -25 0 -4 -8 -7 -17 -6 -10 0 -17 -5 -15 -11 4 -21 -16
-15 -23 7 -4 11 -11 18 -16 14 -6 -3 -16 0 -24 6 -12 10 -15 9 -15 -4 0 -9 -6
-16 -12 -16 -16 0 -39 -47 -32 -65 12 -31 82 -20 91 15 4 16 9 18 25 9 14 -8
28 -7 48 1 25 10 34 8 74 -15 35 -21 54 -26 79 -21 39 7 80 34 72 47 -4 5 2 6
12 2 10 -3 15 -2 10 2 -4 5 3 19 15 32 30 32 48 14 48 -49 0 -51 -10 -79 -41
-113 -10 -11 -30 -33 -44 -48 -17 -19 -25 -23 -25 -13 0 13 -5 14 -27 5 -54
-21 -149 -27 -218 -14 -22 4 -49 9 -60 11 -114 21 -125 29 -127 86 0 25 2 51
6 56 9 15 -6 21 -31 11 -15 -5 -20 -14 -16 -27 2 -10 -5 -34 -16 -53 -18 -30
-26 -32 -22 -6 1 5 -3 6 -9 2 -5 -3 -26 -2 -45 4 -23 6 -33 6 -29 0 3 -6 -2
-9 -12 -7 -21 3 -43 34 -44 59 0 25 -32 36 -115 39 -22 1 -58 7 -80 12 -56 14
-76 16 -194 19 -68 2 -107 7 -116 15 -7 7 -22 11 -34 9 -12 -2 -21 1 -21 6 0
6 -5 7 -10 4 -6 -4 -8 -11 -5 -16 10 -15 -2 -10 -20 8 -12 12 -19 13 -24 5 -8
-13 -48 -14 -101 -1 -43 10 -75 57 -66 96 4 13 12 23 19 20 46 -17 55 -17 53
-1 -2 31 41 27 64 -6 41 -57 162 -56 145 1 -3 9 4 24 14 33 16 15 39 18 114
20 75 1 99 5 114 18 11 10 46 27 78 38 32 11 63 25 70 30 15 12 133 11 141 -2
3 -4 14 -8 25 -8 11 0 32 -9 47 -19 44 -31 65 -33 113 -9 39 20 49 22 89 12
33 -8 47 -8 52 0 5 8 11 7 20 -2 18 -18 35 -15 71 12 18 13 46 26 62 29 49 7
147 7 187 1z m1626 -46 c9 -9 12 -9 12 2 0 8 13 2 33 -17 39 -38 90 -53 135
-39 24 7 36 6 45 -3 9 -11 9 -14 0 -18 -7 -3 -13 -10 -13 -16 0 -7 -12 -25
-26 -40 -22 -24 -32 -28 -58 -23 -34 6 -102 -26 -91 -44 3 -6 -1 -10 -9 -10
-12 0 -16 -10 -16 -35 0 -19 -5 -35 -11 -35 -5 0 -8 -4 -5 -9 3 -4 -3 -18 -13
-30 -19 -22 -20 -22 -30 -3 -6 11 -12 36 -14 55 -6 53 -35 87 -74 87 -13 0
-23 5 -23 12 0 6 -3 8 -7 5 -3 -4 -12 -2 -19 3 -6 6 -16 10 -20 9 -25 -5 -77
16 -81 33 -3 10 -10 18 -15 18 -6 0 -8 -6 -5 -14 4 -11 -3 -13 -34 -9 -37 5
-53 -7 -29 -22 14 -9 12 -45 -2 -46 -115 -11 -238 1 -238 23 0 4 -9 8 -19 8
-11 0 -22 4 -26 10 -3 5 -11 7 -18 4 -7 -2 -20 1 -29 8 -20 16 -34 58 -19 58
6 0 10 3 10 8 -4 25 3 62 11 62 6 0 24 -13 40 -30 36 -37 80 -47 87 -20 3 11
9 18 13 15 4 -2 12 7 18 20 13 29 28 31 69 11 15 -8 52 -22 81 -31 45 -15 58
-15 80 -5 15 7 43 15 62 17 19 1 46 6 60 9 14 4 41 9 60 11 19 3 43 9 55 13
30 13 59 12 73 -2z m-4827 -123 c38 -23 71 -36 98 -37 38 -1 40 -3 37 -29 -2
-16 -13 -37 -25 -47 -18 -13 -21 -23 -16 -45 4 -15 11 -25 15 -22 17 11 15
-20 -2 -37 -31 -31 -127 -43 -237 -29 -174 21 -216 47 -207 125 2 23 5 44 5
49 1 4 8 7 16 7 8 0 15 5 15 11 0 5 5 7 10 4 6 -3 10 3 10 14 0 26 24 37 77
36 33 -1 45 4 59 23 24 32 68 25 145 -23z m-2696 -126 c-4 -5 -1 -9 4 -9 6 0
11 -5 11 -11 0 -6 -7 -8 -16 -5 -12 4 -14 1 -9 -13 3 -11 0 -23 -6 -27 -8 -4
-9 -3 -5 5 4 6 3 18 -4 26 -8 10 -8 18 1 34 7 11 17 17 21 15 5 -3 6 -10 3
-15z m1467 6 c3 -3 1 -24 -5 -46 -7 -28 -18 -44 -38 -54 -35 -18 -43 -3 -21
40 25 51 50 74 64 60z m235 -24 c7 -9 13 -12 13 -8 0 5 7 1 17 -8 15 -15 14
-19 -15 -48 -28 -27 -40 -32 -88 -34 l-55 -1 6 31 c10 45 63 99 89 91 12 -4
26 -14 33 -23z m-2307 6 c0 -7 -19 -34 -42 -60 -30 -32 -47 -44 -57 -38 -9 6
-10 14 -3 27 16 30 68 73 100 83 1 1 2 -5 2 -12z m4422 -26 c-2 -35 -14 -50
-50 -70 -34 -18 -43 -5 -25 37 23 50 44 73 62 70 11 -3 15 -13 13 -37z m3933
9 c8 0 16 -4 19 -9 6 -9 -15 -61 -25 -61 -9 0 -22 30 -25 55 -2 24 8 44 14 27
2 -7 10 -12 17 -12z m-1555 -14 c0 -7 -6 -19 -14 -25 -11 -9 -13 -7 -11 11 3
28 3 28 15 28 6 0 10 -6 10 -14z m-2170 -16 c12 -11 27 -17 31 -14 5 3 9 3 9
0 0 -11 -56 -34 -83 -34 -33 1 -43 18 -27 47 14 26 40 27 70 1z m3625 -10 c3
-5 0 -7 -9 -4 -9 3 -16 -2 -18 -13 -3 -15 -5 -15 -10 5 -5 17 -2 22 12 22 11
0 22 -4 25 -10z m-4514 -58 c8 3 29 -1 48 -8 30 -13 37 -12 59 2 21 14 31 14
64 5 21 -7 54 -9 72 -5 45 8 101 -29 91 -61 -4 -11 -7 -25 -7 -32 -1 -7 -32
-17 -71 -23 -70 -12 -88 -10 -207 20 -25 6 -59 12 -77 12 -25 0 -33 5 -35 22
-6 40 3 75 18 69 8 -3 14 1 14 8 0 12 2 12 9 0 5 -7 15 -11 22 -9z m-2339 -43
c16 -9 23 -8 29 2 6 10 9 11 9 2 0 -7 5 -13 12 -13 6 0 19 -7 28 -15 15 -14
22 -13 64 5 68 29 115 26 164 -9 22 -17 39 -36 38 -44 -4 -31 -37 -66 -68 -72
-18 -4 -43 -13 -55 -21 -19 -12 -29 -11 -84 16 -44 21 -67 26 -79 20 -11 -6
-30 -6 -49 0 -19 5 -29 5 -26 -1 4 -5 1 -9 -4 -9 -6 0 -11 5 -11 12 0 6 -3 9
-6 5 -3 -3 -12 -1 -18 6 -10 9 -10 21 1 57 24 80 21 77 55 59z m2170 -581 c34
-2 36 -4 31 -29 -3 -15 0 -30 6 -33 13 -9 15 -27 2 -23 -5 1 -30 -20 -56 -46
-69 -73 -176 -116 -267 -108 -10 0 -18 8 -18 16 0 31 -121 -16 -171 -68 -37
-37 -73 -51 -159 -62 -105 -14 -140 -7 -222 44 -32 19 -37 27 -32 48 4 14 7
35 8 46 1 16 10 23 34 28 18 4 42 15 52 24 16 15 24 16 47 6 16 -6 46 -13 68
-15 22 -3 60 -12 84 -21 56 -19 100 -19 175 2 68 18 153 69 162 95 3 10 10 18
15 18 5 0 9 6 9 13 0 19 59 77 78 77 9 0 31 9 47 20 l30 20 20 -24 c14 -17 32
-26 57 -28z m2664 14 c-16 -26 -29 -192 -15 -192 13 0 11 -27 -2 -36 -6 -3
-14 -3 -18 2 -10 15 -28 14 -41 -1 -7 -8 -19 -15 -28 -15 -12 0 -14 11 -9 68
6 75 36 155 64 171 22 12 56 14 49 3z m1981 -53 c42 -26 65 -69 65 -123 1 -52
-9 -83 -28 -90 -25 -10 -31 0 -32 51 -1 31 -12 69 -32 109 -16 34 -30 64 -30
68 0 12 23 6 57 -15z m-2692 -108 c-3 -11 -1 -22 5 -26 5 -3 10 -18 10 -33 0
-28 31 -86 59 -112 9 -8 27 -30 40 -48 20 -28 21 -33 6 -38 -23 -9 -92 24
-121 59 -76 91 -89 201 -27 236 22 12 37 -10 28 -38z m-1949 -417 c58 -10 94
-26 114 -51 24 -31 26 -61 4 -91 -15 -22 -11 -62 6 -62 5 0 18 -15 29 -33 40
-65 -3 -128 -158 -234 -45 -31 -72 -43 -98 -43 -70 0 -223 -90 -223 -131 0
-25 -4 -24 -34 6 -29 29 -47 30 -131 10 -165 -40 -355 5 -410 98 -20 34 -15
75 16 119 l22 30 -22 38 c-11 21 -21 45 -21 53 0 25 43 67 75 73 29 5 30 4 30
-27 0 -45 26 -50 42 -9 6 17 7 32 2 36 -5 3 -9 9 -9 13 0 11 147 3 189 -10 18
-6 52 -8 74 -5 42 7 127 41 137 54 3 4 29 25 58 46 28 21 52 41 52 46 0 13 70
62 109 77 33 12 65 11 147 -3z m2748 -3 c17 -6 15 -9 -13 -21 -40 -16 -61 -46
-61 -85 0 -38 7 -48 47 -68 30 -16 47 -16 119 -1 24 4 54 58 54 97 0 20 4 24
20 20 10 -3 22 -14 25 -24 4 -10 10 -19 14 -19 13 0 31 -82 31 -137 0 -30 -7
-60 -20 -80 -26 -44 -98 -107 -124 -111 -114 -14 -154 -24 -236 -56 -91 -36
-113 -40 -315 -61 -136 -14 -298 36 -327 101 -19 40 7 48 56 16 55 -34 123
-41 156 -14 l25 20 -25 10 c-14 6 -55 18 -93 27 -167 43 -247 186 -137 245 15
8 21 6 30 -9 6 -11 10 -24 9 -28 -5 -30 5 -56 32 -82 25 -25 39 -31 75 -31 53
0 84 14 84 37 0 20 -28 53 -45 53 -13 0 -25 22 -25 46 0 7 11 21 25 30 24 16
29 15 83 -4 31 -12 73 -22 93 -23 36 -3 99 17 99 31 0 9 66 37 110 46 19 3 54
20 77 36 55 40 116 55 157 39z m-4224 -26 c0 -3 -11 -10 -25 -15 -14 -5 -33
-26 -42 -45 -17 -35 -84 -85 -130 -97 -21 -6 -21 -5 -5 21 45 70 68 100 87
112 31 19 115 37 115 24z m116 -27 c23 -2 44 -25 44 -48 0 -30 -16 -54 -82
-130 -44 -50 -48 -59 -43 -90 6 -33 2 -40 -42 -83 -26 -26 -53 -47 -59 -47 -7
0 -19 -3 -27 -6 -12 -4 -11 2 4 34 20 40 17 72 -7 72 -33 0 -8 42 86 143 90
96 100 111 100 145 0 24 3 32 9 24 4 -8 12 -14 17 -14z m594 -184 c0 -8 -5
-12 -10 -9 -6 4 -8 11 -5 16 9 14 15 11 15 -7z m-1201 -51 l43 -6 -5 -39 c-6
-43 -31 -78 -56 -78 -9 0 -26 -7 -38 -15 -21 -14 -24 -14 -42 4 -15 15 -19 28
-15 50 6 27 3 30 -22 33 -34 4 -38 25 -9 51 15 13 30 16 60 12 22 -3 60 -9 84
-12z m-267 -58 c4 -39 4 -39 -23 -25 -19 10 -26 40 -12 53 16 17 31 4 35 -28z
m137 -127 c-4 -24 -8 -49 -9 -55 0 -19 -50 6 -50 26 0 15 48 71 61 71 3 0 3
-19 -2 -42z m-4 -148 c3 -6 0 -10 -7 -10 -18 1 -49 26 -42 33 8 7 40 -8 49
-23z m5614 -633 c127 -27 251 -164 251 -278 0 -73 -19 -108 -99 -179 -39 -35
-73 -72 -77 -82 -8 -25 -48 -24 -41 1 4 16 0 18 -22 15 -46 -8 -103 -24 -211
-59 -169 -54 -317 -88 -358 -82 -21 3 -73 11 -117 17 -202 28 -336 107 -396
235 -41 86 -38 142 14 218 51 75 276 120 406 81 110 -32 169 -19 310 71 30 19
73 39 95 44 52 12 185 11 245 -2z m-5781 -19 c8 -8 10 -56 6 -177 -6 -151 -9
-170 -31 -211 -13 -25 -42 -58 -63 -75 -62 -49 -97 -110 -115 -200 -19 -100
-31 -123 -60 -121 -20 1 -22 6 -24 71 -1 39 -6 74 -11 79 -5 5 -33 -4 -67 -22
-32 -17 -121 -63 -197 -102 l-140 -71 -140 4 c-156 4 -219 19 -278 64 -69 53
-73 68 -70 253 1 91 5 173 8 183 8 26 55 21 102 -9 l41 -27 -5 -151 c-5 -149
-5 -151 20 -181 23 -28 29 -30 93 -30 82 0 141 26 163 70 10 21 16 78 20 195
3 91 8 170 13 177 4 6 20 14 36 18 21 4 34 18 51 53 12 26 36 61 52 78 16 17
37 53 47 80 20 51 34 60 77 50 l25 -7 -1 -132 c-1 -207 21 -259 114 -274 60
-10 84 2 92 45 4 20 10 42 14 47 4 6 15 37 25 70 10 33 36 84 57 113 22 30 48
72 58 96 11 23 22 45 26 49 11 11 49 8 62 -5z m2516 -7 c3 -5 10 -73 16 -152
6 -79 13 -175 16 -212 6 -79 4 -84 -70 -125 -62 -35 -120 -103 -135 -157 -6
-21 -8 -41 -6 -43 2 -3 0 -12 -5 -22 -5 -9 -10 -34 -12 -54 -1 -20 -6 -36 -10
-36 -4 0 -5 -7 -2 -15 6 -15 -11 -22 -19 -7 -11 18 -16 111 -8 139 7 23 5 37
-6 52 -12 18 -13 33 -3 97 7 42 18 95 26 117 8 22 16 54 18 71 2 17 9 42 14
56 6 14 23 59 38 100 15 41 40 103 57 138 27 54 35 62 58 62 15 0 30 -4 33 -9z
m-646 -237 c28 -27 34 -41 38 -86 2 -29 6 -78 9 -108 29 -295 28 -280 3 -280
-38 1 -108 37 -117 62 -4 13 -11 68 -15 123 -5 55 -11 145 -15 200 -9 110 -7
122 17 128 25 5 44 -4 80 -39z m3962 -314 c0 -5 -4 -10 -10 -10 -5 0 -10 5
-10 10 0 6 5 10 10 10 6 0 10 -4 10 -10z m-1733 -142 c5 -7 17 -47 27 -88 32
-142 40 -170 48 -170 5 0 6 -6 2 -12 -4 -7 3 -4 16 7 l23 20 -10 -20 c-16 -35
-10 -49 23 -50 26 -1 30 3 32 26 1 17 -4 29 -14 33 -9 3 -14 13 -11 21 3 7 2
27 -3 44 -6 22 -2 48 18 108 24 69 30 78 53 81 33 4 36 -4 49 -121 6 -51 13
-105 15 -122 3 -16 8 -53 11 -81 l6 -50 -51 -37 c-28 -20 -55 -37 -60 -37 -15
0 -122 -108 -119 -121 2 -6 -3 -14 -9 -16 -11 -4 -17 13 -15 38 0 3 -19 11
-43 18 -50 15 -49 15 -130 -56 -36 -33 -48 -50 -49 -75 -2 -22 -7 -32 -16 -30
-10 2 -11 0 -3 -10 8 -10 8 -20 -3 -38 -12 -23 -13 -20 -11 45 l2 70 -50 3
c-27 2 -78 -4 -111 -13 -49 -13 -70 -14 -101 -6 -22 6 -97 11 -167 10 -134 0
-175 8 -238 47 -43 27 -42 25 -68 242 -14 120 -15 150 -4 161 30 32 92 -40 99
-115 6 -76 26 -171 38 -188 12 -16 91 -26 103 -13 4 3 0 66 -9 139 -9 73 -13
145 -10 160 8 41 35 44 83 9 23 -16 54 -33 71 -36 16 -4 29 -11 29 -16 0 -22
39 29 47 61 11 43 33 49 74 19 31 -22 32 -22 63 -4 38 22 46 33 46 63 0 12 5
32 12 45 6 12 14 29 18 37 4 8 18 16 31 18 22 3 25 -3 43 -80 20 -88 30 -108
52 -108 20 0 74 60 74 82 0 22 38 100 54 110 16 11 32 10 43 -4z m-2780 -14
c3 -8 1 -20 -5 -26 -21 -21 -118 -45 -172 -42 -31 1 -62 -1 -68 -5 -7 -4 -14
-30 -17 -57 -2 -27 -6 -85 -10 -129 -9 -121 -10 -122 -63 -149 -89 -45 -143
-125 -165 -244 -14 -72 -38 -115 -61 -106 -20 8 -14 298 8 348 29 68 27 69
-157 61 -105 -5 -167 -11 -175 -19 -10 -9 -10 -23 -3 -54 6 -28 5 -42 -1 -42
-6 0 -7 -7 -3 -17 5 -10 9 -45 10 -78 1 -33 5 -67 9 -76 4 -9 0 -24 -11 -37
-16 -20 -22 -21 -55 -12 -20 6 -47 19 -60 29 -22 19 -23 24 -26 205 -3 150 -1
186 10 187 7 1 24 2 38 4 14 1 70 5 125 9 55 3 121 9 147 12 26 4 60 2 76 -4
20 -7 37 -6 58 3 39 17 133 116 178 187 42 66 32 63 254 66 112 2 134 0 139
-14z m2908 -214 c-3 -5 -10 -10 -16 -10 -5 0 -9 5 -9 10 0 6 7 10 16 10 8 0
12 -4 9 -10z m-65 -375 c0 -8 -7 -15 -16 -15 -14 0 -14 -3 -4 -15 11 -13 11
-20 0 -40 -17 -31 -34 -33 -24 -3 4 13 7 35 6 50 0 17 5 28 16 31 9 3 18 5 20
6 1 0 2 -6 2 -14z m14 -891 c31 -12 15 -38 -74 -125 -59 -57 -90 -95 -90 -109
0 -20 48 -71 214 -229 25 -24 46 -47 46 -50 -2 -32 -86 -62 -97 -34 -3 7 -11
13 -19 13 -8 0 -14 4 -14 8 0 5 -11 15 -25 22 -13 7 -22 17 -19 22 3 4 -1 8
-9 8 -7 0 -23 13 -34 29 -28 38 -75 36 -126 -5 -20 -16 -32 -30 -27 -32 17 -6
11 -22 -7 -22 -14 0 -15 -2 -5 -9 11 -6 10 -11 -3 -25 -12 -12 -13 -16 -3 -17
10 0 10 -2 1 -6 -7 -2 -13 -11 -13 -19 0 -9 5 -12 10 -9 6 4 10 -5 10 -20 0
-22 -4 -26 -17 -21 -16 5 -16 5 0 -8 10 -8 18 -17 18 -20 0 -3 2 -13 5 -21 4
-8 1 -22 -6 -30 -10 -12 -10 -15 1 -15 8 0 -2 -8 -21 -17 -19 -10 -38 -21 -41
-25 -12 -18 -73 -26 -158 -22 -95 4 -151 -12 -151 -43 0 -13 -3 -13 -15 -3 -8
7 -15 17 -15 22 0 5 -11 24 -24 41 -13 18 -26 47 -30 66 -8 43 -48 96 -87 116
-46 25 -138 7 -152 -28 -3 -7 -2 -31 2 -53 4 -21 6 -45 5 -51 -1 -7 -2 -20 -3
-28 -3 -40 -106 -19 -128 26 -11 23 -38 216 -49 351 -3 34 -10 81 -14 102 -19
86 34 102 106 31 37 -35 45 -50 42 -70 -6 -30 12 -48 38 -39 11 4 51 32 89 63
136 109 177 129 278 134 20 1 38 7 38 12 0 6 6 17 14 25 7 8 22 34 34 57 23
46 60 65 86 43 8 -6 17 -33 20 -58 10 -74 25 -111 46 -117 20 -7 100 39 204
115 55 40 123 79 142 80 6 0 18 -3 27 -6z m-3303 -41 c14 -36 11 -388 -3 -436
-8 -26 -30 -57 -61 -86 -27 -25 -66 -62 -87 -81 -35 -32 -100 -137 -100 -161
0 -14 -39 -99 -46 -99 -3 0 -2 5 1 10 3 6 2 10 -3 10 -5 0 -12 14 -16 32 -7
35 -32 68 -53 68 -12 0 -111 -48 -123 -60 -9 -9 -44 -29 -80 -47 -51 -25 -219
-30 -301 -9 -110 29 -154 67 -163 143 -5 35 -2 44 13 53 26 13 46 5 105 -44
43 -35 56 -41 97 -41 57 0 71 14 96 95 13 43 16 89 15 210 -1 85 1 163 4 173
8 26 47 21 90 -14 47 -37 61 -59 44 -69 -9 -6 -9 -9 0 -15 9 -6 9 -9 0 -15
-10 -6 -10 -14 1 -38 7 -17 18 -28 24 -24 5 4 15 7 21 8 19 3 64 36 64 47 0 6
10 21 22 34 25 27 73 30 102 8 11 -8 27 -15 36 -15 16 0 50 48 50 72 0 23 60
132 89 163 16 17 37 46 46 65 33 66 63 99 86 93 11 -3 25 -17 30 -30z m5822
-398 c-3 -9 -8 -14 -10 -11 -3 3 -2 9 2 15 9 16 15 13 8 -4z m18 -18 c-10 -9
-11 -8 -5 6 3 10 9 15 12 12 3 -3 0 -11 -7 -18z m-957 -370 c16 -17 25 -40 31
-82 4 -33 9 -68 11 -79 21 -108 36 -205 36 -221 -2 -51 -49 -85 -111 -81 -16
1 -28 -2 -25 -6 6 -9 3 -9 -40 -12 -21 -1 -31 -8 -38 -26 -12 -32 -37 -55 -70
-63 -32 -8 -38 4 -28 65 8 54 -8 69 -44 43 -12 -8 -32 -23 -46 -32 -33 -23
-70 -65 -70 -80 0 -6 -25 -37 -55 -69 -29 -32 -52 -61 -49 -65 2 -4 -1 -11 -7
-14 -5 -4 -8 -13 -5 -21 3 -7 1 -16 -5 -19 -5 -4 -7 -11 -4 -16 4 -5 -1 -12
-9 -15 -9 -3 -16 -12 -16 -19 0 -7 -7 -15 -15 -19 -16 -6 -19 5 -16 59 6 112
6 114 -18 139 -14 14 -29 26 -35 26 -29 1 -59 39 -66 86 -5 27 -11 62 -14 78
-3 16 -8 50 -12 75 -10 68 -21 90 -49 101 -39 15 -112 1 -118 -21 -3 -11 -2
-21 2 -24 5 -2 8 -17 9 -32 0 -15 5 -47 10 -70 5 -23 9 -68 7 -100 -1 -32 3
-64 8 -71 32 -40 -119 -37 -164 3 -16 15 -16 20 -2 52 18 45 18 60 -5 213 -20
135 -19 165 6 175 9 3 52 8 96 10 45 3 115 7 156 10 55 5 87 2 119 -9 24 -9
57 -16 74 -16 49 0 113 37 159 92 23 28 55 56 71 63 17 7 87 13 173 14 139 2
145 1 168 -22z m-3369 -37 c76 -35 116 -90 134 -181 20 -99 -13 -192 -93 -259
-22 -19 -80 -72 -129 -118 -58 -56 -93 -82 -103 -78 -24 9 -135 -31 -334 -121
-59 -27 -54 -27 -205 12 -175 44 -249 99 -279 203 -9 32 -16 72 -16 88 0 53
30 122 71 163 55 55 121 73 258 71 58 -1 118 -1 134 -1 21 1 53 25 130 99 56
54 113 105 126 112 38 20 161 40 216 34 28 -3 68 -14 90 -24z m3915 -2100 c0
-5 -5 -10 -11 -10 -5 0 -7 5 -4 10 3 6 8 10 11 10 2 0 4 -4 4 -10z"/>
<path d="M775 7800 c-3 -6 1 -7 9 -4 18 7 21 14 7 14 -6 0 -13 -4 -16 -10z"/>
<path d="M3200 7938 c0 -5 -5 -6 -12 -2 -7 4 -8 3 -4 -4 4 -6 14 -8 23 -5 11
4 14 3 9 -5 -4 -7 -2 -12 3 -12 6 0 11 5 11 11 0 6 9 9 20 6 11 -3 18 -2 15 3
-7 11 -65 18 -65 8z"/>
<path d="M3650 6594 c-67 -22 -75 -95 -11 -109 44 -9 81 4 101 38 18 30 18 31
-1 58 -21 29 -33 31 -89 13z"/>
<path d="M3313 6396 c-13 -6 -23 -14 -23 -18 0 -5 -6 -8 -12 -8 -7 0 -14 -14
-15 -30 -1 -17 2 -28 7 -25 4 3 10 1 12 -3 1 -5 18 -5 36 0 25 7 37 18 48 43
19 45 18 46 -13 39 -22 -4 -25 -3 -13 5 19 14 2 12 -27 -3z"/>
<path d="M3760 6373 c0 -7 -7 -13 -15 -13 -16 0 -31 -43 -20 -60 16 -26 62 40
46 68 -6 9 -11 11 -11 5z"/>
<path d="M2936 6335 c-16 -12 -16 -14 6 -29 26 -18 61 -21 89 -6 29 16 23 27
-18 35 -21 5 -43 9 -49 10 -5 2 -18 -3 -28 -10z"/>
<path d="M3605 6336 c-24 -17 -15 -29 26 -32 26 -2 28 0 17 14 -7 8 -12 18
-10 21 7 12 -15 10 -33 -3z"/>
<path d="M2927 6139 c-17 -63 134 -84 161 -23 16 33 -12 46 -93 42 -49 -2 -65
-7 -68 -19z"/>
<path d="M6452 6333 c-10 -4 -10 -8 -1 -19 15 -18 29 -17 54 3 16 12 16 14 3
10 -10 -3 -20 -2 -23 3 -7 11 -13 11 -33 3z"/>
<path d="M6090 6191 c-8 -6 -17 -8 -21 -6 -3 3 -4 -7 -1 -21 6 -32 42 -48 58
-25 17 25 25 53 14 46 -6 -3 -10 -1 -10 4 0 13 -20 14 -40 2z"/>
<path d="M7015 5296 c-53 -29 -72 -46 -84 -79 -47 -122 73 -258 229 -261 65
-1 140 24 140 46 0 5 9 17 21 27 41 33 39 211 -2 211 -5 0 -8 4 -5 8 7 11 -39
44 -82 59 -58 20 -170 15 -217 -11z"/>
<path d="M6337 5205 c3 -8 9 -12 14 -9 12 7 11 11 -5 17 -10 4 -13 1 -9 -8z"/>
<path d="M6290 5185 c-10 -12 -10 -18 0 -30 10 -12 10 -15 -4 -15 -9 0 -16 -3
-17 -7 0 -5 -3 -17 -6 -28 -12 -46 -4 -136 16 -174 33 -62 153 -102 252 -83
108 20 155 77 146 181 -3 46 -9 59 -36 83 -31 28 -35 29 -134 27 -98 -1 -164
12 -153 30 3 4 -6 13 -20 20 -31 14 -29 14 -44 -4z"/>
<path d="M4990 4355 c-11 -13 -10 -14 4 -9 9 3 16 10 16 15 0 13 -6 11 -20 -6z"/>
<path d="M5000 4330 c0 -5 5 -10 10 -10 6 0 10 5 10 10 0 6 -4 10 -10 10 -5 0
-10 -4 -10 -10z"/>
<path d="M4998 4303 c7 -3 16 -2 19 1 4 3 -2 6 -13 5 -11 0 -14 -3 -6 -6z"/>
<path d="M5015 4220 c3 -5 8 -10 11 -10 2 0 4 5 4 10 0 6 -5 10 -11 10 -5 0
-7 -4 -4 -10z"/>
<path d="M5306 2477 c3 -10 9 -15 12 -12 3 3 0 11 -7 18 -10 9 -11 8 -5 -6z"/>
<path d="M6969 2203 c-15 -40 7 -149 35 -172 11 -9 15 -6 20 15 4 15 14 34 23
42 10 10 12 17 5 20 -8 2 -7 11 3 26 29 44 6 90 -46 92 -24 1 -33 -4 -40 -23z"/>
<path d="M3665 2211 c-43 -9 -95 -81 -95 -132 0 -105 96 -158 170 -95 18 14
28 26 24 26 -4 0 1 6 12 14 10 8 16 18 12 22 -4 4 0 19 9 34 14 24 14 33 4 58
-7 17 -19 33 -28 36 -8 3 -12 10 -8 15 10 17 -54 31 -100 22z"/>
<path d="M3080 1918 c0 -5 -11 -8 -25 -8 -54 0 -99 -40 -99 -89 0 -84 64 -139
148 -127 37 6 49 13 67 42 40 65 38 166 -4 181 -28 10 -87 10 -87 1z"/>
<path d="M507 6821 c-22 -14 -25 -20 -15 -28 19 -16 58 2 58 27 0 25 -7 25
-43 1z"/>
<path d="M791 6481 c-7 -5 -10 -14 -7 -20 4 -6 1 -11 -7 -11 -18 0 -42 -28
-33 -37 7 -7 76 56 76 69 0 10 -11 10 -29 -1z"/>
<path d="M606 6467 c-16 -12 -16 -14 -3 -14 9 0 18 6 21 14 3 7 4 13 3 13 -2
0 -11 -6 -21 -13z"/>
<path d="M342 2178 c5 -15 50 -17 55 -3 2 6 -11 12 -28 13 -21 2 -29 -2 -27
-10z"/>
</g>
</svg>
